<?xml version="1.0" encoding="utf-8"?>
<!-- Generator: Adobe Illustrator 22.1.0, SVG Export Plug-In . SVG Version: 6.00 Build 0)  -->
<svg version="1.1" id="Layer_1" xmlns="http://www.w3.org/2000/svg" xmlns:xlink="http://www.w3.org/1999/xlink" x="0px" y="0px"
	 viewBox="0 0 100 125" style="enable-background:new 0 0 100 125;" xml:space="preserve">
<style type="text/css">
	.st0{fill:#2DCCD3;}
</style>
<path class="st0" d="M95.2,22.1c-5.1-1.3-10.8,0.6-15.4,2.5c-5.2,2.1-8.9,4.1-12.7,8.2c0,0-7.7-4-17.3-4s-16.9,4-16.9,4
	c-3.8-4.1-7.4-6-12.7-8.2c-4.7-1.9-10.4-3.8-15.4-2.5c-3,0.8-2.5,5-1.5,7.2c1.4,3,2.6,5.8,3.4,9c0.7,3.1,1.2,5,2.7,7.8
	c1,2,2.2,3.9,3.5,5.7c0,0-2.4,5.3-0.1,14.5c-0.4,0.5-0.7,1-1.1,1.5c-0.4,0.7-1.2,2.3-0.7,3.2c0.7,1.3,2.2,0.4,3.3,0l0,0
	c-4.4,3.1-1.4,5.7,1.9,3.4c0,0.1,0.1,0.1,0.1,0.2C23,89,39.1,91.2,39.1,91.2c4.5,5.5,9.8,5.5,10.7,5.5c0.8,0,6.5-0.1,11.1-5.5
	c0,0,16.2-2.2,23-16.4c0-0.1,0.1-0.1,0.1-0.2c3.3,2.3,6.3-0.3,1.9-3.4l0,0c1.1,0.3,2.6,1.3,3.3,0c0.5-0.9-0.3-2.5-0.7-3.2
	c-0.3-0.5-0.7-1-1.1-1.5c2.3-9.2-0.1-14.5-0.1-14.5c1.3-1.8,2.4-3.7,3.5-5.7c1.5-2.8,2-4.7,2.7-7.8c0.7-3.2,2-6,3.4-9
	C97.7,27.2,98.2,22.9,95.2,22.1z M25.7,78.6c0.5,1.6,3.8,4.7,3.3,5.2c-0.5,0.6-5.1-1.7-7-3.5c-1.8-1.8-2.9-4.1-4.1-6.3
	c-0.7-1.3-1.4-1.1-2.5-0.6c-0.2,0.1-2,1.1-2.1,0.6c-0.2-0.7,1.8-2.1,2.5-2.7c0.7-0.5,3.5-2.6,1-2.3c-1.5,0.2-4.2,1.6-4.6,1.3
	c-0.5-0.5,1.1-2.3,1.4-2.7c0.7-0.9,1.4-1.9,2.2-2.7c1.8-1.9,4.2-3.9,6.9-4.4c2.6-0.4,6.3,1.3,6.7,4.4c0.4,2.6-1.5,4.7-2.6,6.8
	C25.8,73.9,25,76.2,25.7,78.6z M31.5,33.8c0,0.1-0.1,0.1-0.2,0.2c-0.1,0-0.3,0-0.4-0.1c-0.4-0.3-0.7-0.8-1.2-1.1
	c-1.4-1-2.9-1.8-4.5-2.6c-2.3-1.1-4.7-2.1-7.2-2.7c-2.2-0.5-5.1-1.1-7.2,0.1c0,0,0,0-0.1,0c-1.7,1.1-1.5,3.9-1.4,5.6
	c0.1,2.1,0.4,4.3,1.1,6.4c0.8,2.2,2.1,3.8,3.6,5.6c0.6,0.8,2.1,3.4,0,3.4c-1.3,0-2.5-2.4-3-3.4c-0.9-1.6-1.9-3.8-2.4-5.6
	c-0.5-2-1-4.1-1.7-6.1c-0.5-1.6-1.4-3.2-1.8-4.8c-0.6-2.2-0.6-5.3,2.4-5.2c5.5,0.1,10.8,2,15.8,4.2c2.6,1.1,5.1,2.5,7.1,4.5
	c0.3,0.4,0.9,0.8,1.1,1.3C31.6,33.6,31.6,33.7,31.5,33.8z M32.5,60.6c-0.8-0.2-0.9-1.1-0.6-1.7c1-2.1,4-1.7,5.7-0.8
	c1.2,0.7,2.5,1.3,3.8,1.7c0.5,0.2,0.9-0.1,0.8-0.7c-0.1-1.7-2.3-3-3.6-3.8c-1-0.7-4-2.6-3.1-3.6c0.9-1.1,5.5,0.3,6.5,0.8
	c2.2,1,3.6,2.9,3.3,5.4c-0.4,3-1.7,5.9-3.7,8.1c-0.5,0.5-1.1,1.1-1.8,1.5c-1.5,1-3.4,1.5-4.8-0.3c-0.9-1.2-1.2-2.7-1.3-4.1
	C33.7,61.8,34,60.9,32.5,60.6z M50,91.2c-2,0-3.7-2.2-3.7-5c1.1,0.1,2.2,0.1,3.2,0.2c0,1.4,0.2,2.4,0.5,2.4s0.5-1.1,0.5-2.4
	c1,0,2.1-0.1,3.2-0.2C53.7,89,52,91.2,50,91.2z M65.6,79.1C63.2,84.9,55.1,85,50,85.2c-5.1-0.2-13.2-0.4-15.6-6.1
	c-1-2.5,1.7-5.3,3.5-6.3c2.8-1.6,4-4.3,5.6-7c1.4-2.3,3.8-3.2,6.5-3.2s5,0.9,6.5,3.2c1.6,2.6,2.8,5.4,5.6,7
	C63.9,73.8,66.7,76.6,65.6,79.1z M67.5,60.6c-1.5,0.3-1.2,1.3-1.3,2.5c-0.1,1.4-0.4,2.9-1.3,4.1c-1.3,1.7-3.2,1.3-4.8,0.3
	c-0.7-0.5-1.3-1-1.8-1.5c-2-2.3-3.3-5.2-3.7-8.1c-0.3-2.5,1.1-4.4,3.3-5.4c1.1-0.5,5.6-1.9,6.5-0.8c0.9,1-2.2,3-3.1,3.6
	c-1.3,0.9-3.6,2.1-3.6,3.8c0,0.5,0.3,0.8,0.8,0.7c1.4-0.4,2.6-1.1,3.8-1.7c1.8-0.9,4.7-1.3,5.7,0.8C68.5,59.5,68.3,60.4,67.5,60.6z
	 M87.7,70.3c-0.4,0.4-3-1.1-4.6-1.3c-2.5-0.3,0.4,1.8,1,2.3c0.8,0.5,2.7,2,2.5,2.7c-0.1,0.5-1.9-0.5-2.1-0.6
	c-1.1-0.5-1.7-0.7-2.5,0.6c-1.3,2.2-2.3,4.5-4.1,6.3c-1.9,1.9-6.5,4.1-7,3.5s2.9-3.6,3.3-5.2c0.7-2.4-0.1-4.7-1.2-6.9
	c-1.1-2.1-2.9-4.2-2.6-6.8c0.4-3.1,4.1-4.8,6.7-4.4c2.7,0.5,5,2.4,6.9,4.4c0.8,0.8,1.5,1.8,2.2,2.7C86.6,68,88.2,69.8,87.7,70.3z
	 M94.7,28.8c-0.4,1.7-1.3,3.2-1.8,4.8c-0.7,2-1.1,4-1.7,6.1c-0.5,1.7-1.5,4-2.4,5.6c-0.5,1-1.7,3.4-3,3.4c-2.1,0-0.6-2.6,0-3.4
	c1.4-1.8,2.8-3.3,3.6-5.6c0.7-2,1-4.2,1.1-6.4c0.1-1.8,0.3-4.5-1.4-5.6c0,0,0,0-0.1,0c-2.1-1.3-5-0.7-7.2-0.1
	c-2.5,0.6-4.9,1.6-7.2,2.7c-1.5,0.7-3.1,1.6-4.5,2.6c-0.4,0.3-0.7,0.8-1.2,1.1c-0.1,0.1-0.2,0.1-0.4,0.1c-0.1,0-0.1-0.1-0.2-0.2
	c0-0.1,0-0.2,0-0.3c0.1-0.5,0.7-1,1.1-1.3c2-2,4.5-3.4,7.1-4.5c5-2.2,10.2-4.1,15.8-4.2C95.3,23.5,95.3,26.6,94.7,28.8z M52.2,74.9
	c-0.7-0.2-1.4-0.3-2.1-0.3c-0.6,0-1.1,0-1.7,0.1c-0.9,0.2-1.9,0.5-2.7,1c-0.7,0.5-1.3,1.3-1.4,2.2c-0.1,0.4,0,0.8,0.1,1.2
	c0.5,2.2,2.6,3.9,4.7,4.4c2.3,0.5,4.6-1,5.8-2.8c0.9-1.3,1.1-3.2,0-4.4C54.2,75.5,53.2,75.1,52.2,74.9z M39.3,66.3
	c1.4-0.5,2.1-2.2,1.6-3.8c-0.5-1.6-2.2-2.4-3.6-1.8s-2.1,2.2-1.6,3.8C36.2,66,37.9,66.8,39.3,66.3z M38.7,61.9
	c0.3-0.2,0.7,0,0.9,0.5c0.2,0.4,0.1,0.9-0.2,1c-0.3,0.2-0.7,0-0.9-0.5C38.2,62.5,38.3,62,38.7,61.9z M62.7,60.7
	c-1.4-0.5-3,0.3-3.6,1.8s0.1,3.2,1.6,3.8s3-0.3,3.6-1.8C64.9,62.9,64.2,61.2,62.7,60.7z M61.6,62.9c-0.2,0.4-0.6,0.6-0.9,0.5
	c-0.3-0.2-0.4-0.6-0.2-1s0.6-0.6,0.9-0.5S61.8,62.5,61.6,62.9z"/>
</svg>
